<?xml version="1.0"?>
<svg width="22" height="20" xmlns="http://www.w3.org/2000/svg" xmlns:svg="http://www.w3.org/2000/svg">
 <g class="layer">
  <title>Layer 1</title>
  <path d="m20.93,3.64l-17.07,0l-0.25,-2.82a0.9,0.9 0 0 0 -0.89,-0.82l-1.82,0a0.9,0.9 0 1 0 0,1.79l1,0l1.03,11.49c0.07,0.82 0.52,1.72 1.29,2.33c-1.39,1.78 -0.12,4.39 2.14,4.39c1.87,0 3.2,-1.87 2.55,-3.64l4.91,0c-0.64,1.77 0.68,3.64 2.55,3.64a2.72,2.72 0 0 0 2.72,-2.72a2.72,2.72 0 0 0 -2.72,-2.71l-10,0c-0.69,0 -1.28,-0.41 -1.54,-1.01l14.33,-0.85a0.9,0.9 0 0 0 0.81,-0.67l1.82,-7.29a0.9,0.9 0 0 0 -0.87,-1.11l0.01,0zm-14.57,14.57a0.93,0.93 0 0 1 0,-1.85a0.93,0.93 0 0 1 0,1.85zm10.01,0a0.93,0.93 0 0 1 0,-1.85a0.93,0.93 0 0 1 0,1.85zm2.02,-7.25l-13.8,0.81l-0.57,-6.34l15.76,0l-1.39,5.53z" fill="#ffffff" fill-rule="nonzero" id="svg_1"/>
 </g>
</svg>